<svg width="144" height="265" viewBox="0 0 144 265" fill="none" xmlns="http://www.w3.org/2000/svg">
<path d="M141.266 54.5625C141.266 55.6875 141.453 56.625 141.828 57.375C142.203 57.9375 142.203 58.7812 141.828 59.9062C142.016 60.6562 142.297 61.3125 142.672 61.875C143.047 62.25 143.141 62.7188 142.953 63.2812C142.016 65.3438 141.641 66.75 141.828 67.5C142.016 68.0625 142.016 68.9062 141.828 70.0312C141.453 70.5938 141.078 71.4375 140.703 72.5625C140.516 73.6875 140.609 74.7188 140.984 75.6562C140.797 76.4062 140.609 77.0625 140.422 77.625C140.234 78.1875 140.141 78.9375 140.141 79.875C141.453 83.8125 140.797 86.625 138.172 88.3125C137.609 90 137.328 91.7812 137.328 93.6562C136.953 94.4062 136.297 94.6875 135.359 94.5C134.422 94.3125 133.672 94.4062 133.109 94.7812C133.297 95.7188 133.391 97.0312 133.391 98.7188C133.203 100.219 132.641 101.344 131.703 102.094C130.953 102.656 130.391 103.688 130.016 105.188C126.453 107.438 123.359 109.406 120.734 111.094C119.609 115.031 117.266 117.844 113.703 119.531C111.266 119.719 110.047 120.188 110.047 120.938C109.109 121.312 108.266 121.594 107.516 121.781C106.953 121.781 106.203 121.969 105.266 122.344C103.016 121.781 101.703 121.781 101.328 122.344C101.141 122.906 100.766 123.375 100.203 123.75C98.1406 124.125 96.4531 124.406 95.1406 124.594C94.0156 124.781 92.9844 125.062 92.0469 125.438C90.9219 125.25 90.0781 124.875 89.5156 124.312C89.1406 123.562 88.5781 123 87.8281 122.625C86.8906 122.812 86.2344 123.188 85.8594 123.75C85.4844 124.125 84.9219 124.5 84.1719 124.875C83.2344 124.875 82.2969 124.969 81.3594 125.156C80.4219 125.156 79.4844 125.156 78.5469 125.156C77.9844 124.781 77.3281 124.5 76.5781 124.312C76.0156 123.938 75.4531 123.562 74.8906 123.188C73.0156 123.75 71.7969 124.312 71.2344 124.875C70.8594 125.25 70.2031 125.438 69.2656 125.438C67.3906 125.062 65.4219 124.875 63.3594 124.875C61.2969 124.875 59.5156 125.25 58.0156 126C58.7656 126.938 58.9531 128.156 58.5781 129.656L57.1719 133.594C57.7344 135.094 58.0156 136.219 58.0156 136.969C58.0156 137.531 58.0156 138.094 58.0156 138.656C58.9531 141.094 59.0469 142.875 58.2969 144C57.7344 144.938 57.2656 145.969 56.8906 147.094C56.5156 147.469 56.0469 147.938 55.4844 148.5C55.1094 148.875 55.0156 149.531 55.2031 150.469C55.5781 150.844 56.1406 151.031 56.8906 151.031C57.8281 151.031 58.4844 151.312 58.8594 151.875C59.2344 153.562 59.0469 155.062 58.2969 156.375C57.7344 157.5 57.4531 159 57.4531 160.875C57.6406 162.188 57.9219 163.594 58.2969 165.094C58.6719 166.594 58.9531 168.094 59.1406 169.594C58.7656 170.344 58.2969 171.094 57.7344 171.844C57.1719 172.406 56.7031 172.969 56.3281 173.531C55.9531 174.094 55.9531 174.656 56.3281 175.219C56.7031 175.594 56.8906 176.062 56.8906 176.625C56.3281 179.625 56.4219 181.688 57.1719 182.812C58.1094 183.938 58.7656 185.25 59.1406 186.75C58.9531 187.312 58.7656 187.781 58.5781 188.156C58.5781 188.531 58.4844 189.094 58.2969 189.844C58.1094 190.406 58.1094 190.969 58.2969 191.531C58.6719 192.094 58.6719 192.562 58.2969 192.938C56.4219 194.438 56.1406 196.031 57.4531 197.719C58.3906 199.031 58.8594 199.969 58.8594 200.531C59.0469 200.906 59.1406 201.281 59.1406 201.656C58.7656 204.094 58.6719 205.688 58.8594 206.438C57.3594 207.75 56.3281 208.594 55.7656 208.969C55.3906 209.531 55.0156 210 54.6406 210.375C54.0781 212.812 53.0469 213.938 51.5469 213.75C50.0469 213.75 48.9219 214.125 48.1719 214.875C48.7344 217.5 48.7344 218.906 48.1719 219.094C47.6094 219.469 47.1406 219.938 46.7656 220.5C46.3906 224.438 45.2656 226.875 43.3906 227.812C41.5156 228.75 40.0156 230.25 38.8906 232.312C37.9531 233.438 37.6719 234.094 38.0469 234.281C38.4219 234.656 38.6094 235.125 38.6094 235.688C38.6094 237 38.2344 237.75 37.4844 237.938C36.7344 238.125 35.8906 238.406 34.9531 238.781C34.3906 239.156 34.0156 239.719 33.8281 240.469C33.8281 241.219 33.7344 241.969 33.5469 242.719C33.1719 243.281 32.7969 243.844 32.4219 244.406C32.0469 244.969 31.6719 245.531 31.2969 246.094C31.1094 246.656 31.0156 247.406 31.0156 248.344C31.0156 249.281 31.0156 250.219 31.0156 251.156C30.4531 253.406 30.0781 254.719 29.8906 255.094C29.8906 255.656 29.9844 256.125 30.1719 256.5C29.9844 258.375 30.0781 259.594 30.4531 260.156C30.8281 260.906 31.1094 261.75 31.2969 262.688C30.5469 264.188 29.7031 264.469 28.7656 263.531C27.8281 262.781 27.0781 262.031 26.5156 261.281C26.1406 261.656 26.0469 262.125 26.2344 262.688C26.6094 263.438 26.6094 264 26.2344 264.375C23.9844 262.875 22.6719 261.281 22.2969 259.594C22.1094 258.094 21.4531 256.969 20.3281 256.219C20.1406 254.344 20.1406 253.219 20.3281 252.844C20.7031 252.656 20.9844 252.375 21.1719 252C20.7969 251.062 20.7031 249.844 20.8906 248.344C20.5156 247.406 20.1406 246.469 19.7656 245.531C19.5781 244.594 19.4844 243.469 19.4844 242.156C20.2344 239.719 20.6094 238.125 20.6094 237.375C20.7969 236.625 21.0781 236.062 21.4531 235.688C21.8281 235.5 22.2031 235.219 22.5781 234.844C22.3906 234.094 22.1094 233.344 21.7344 232.594C21.5469 232.031 21.6406 231.469 22.0156 230.906C22.7656 230.344 23.4219 230.062 23.9844 230.062C24.7344 230.062 25.2969 229.594 25.6719 228.656C25.4844 228.094 25.1094 227.719 24.5469 227.531C23.9844 227.344 23.6094 226.969 23.4219 226.406C22.6719 223.969 21.9219 222.375 21.1719 221.625C20.6094 220.875 20.2344 219.844 20.0469 218.531C21.1719 216.656 21.9219 215.438 22.2969 214.875C22.6719 214.312 22.8594 213.469 22.8594 212.344C22.4844 211.969 21.9219 211.688 21.1719 211.5C20.6094 211.5 20.2344 211.219 20.0469 210.656C20.2344 209.906 20.7031 208.969 21.4531 207.844C21.4531 205.594 21.6406 204.375 22.0156 204.188C21.4531 201.562 21.1719 199.031 21.1719 196.594C21.1719 193.969 21.5469 192.656 22.2969 192.656C21.3594 190.594 20.9844 189.375 21.1719 189C21.5469 188.438 21.9219 187.875 22.2969 187.312C23.2344 187.125 23.6094 186.656 23.4219 185.906C23.4219 185.156 23.6094 184.312 23.9844 183.375C23.9844 181.312 23.7031 179.438 23.1406 177.75C22.5781 176.062 22.4844 174.188 22.8594 172.125C23.2344 171.188 23.4219 169.969 23.4219 168.469C23.6094 166.969 23.4219 165.656 22.8594 164.531C23.4219 163.219 23.7031 162 23.7031 160.875C22.9531 159.375 22.4844 158.156 22.2969 157.219C22.6719 156.469 22.8594 155.531 22.8594 154.406C23.0469 153.281 23.0469 152.156 22.8594 151.031C23.7969 148.219 24.0781 146.531 23.7031 145.969C23.3281 145.219 22.9531 144.469 22.5781 143.719C22.9531 142.781 23.3281 141.75 23.7031 140.625C24.2656 139.5 24.4531 138.469 24.2656 137.531C24.8281 134.531 24.8281 132.75 24.2656 132.188C23.7031 131.625 23.1406 130.969 22.5781 130.219C22.7656 128.906 22.8594 127.594 22.8594 126.281C22.8594 124.781 23.0469 123.469 23.4219 122.344C22.8594 120.469 22.5781 118.406 22.5781 116.156C24.0781 112.406 25.1094 109.594 25.6719 107.719C25.2969 106.969 24.6406 106.5 23.7031 106.312C22.7656 105.938 22.1094 105.188 21.7344 104.062C22.1094 103.125 22.4844 102.188 22.8594 101.25C23.4219 100.125 23.5156 99 23.1406 97.875C23.8906 96.1875 24.1719 95.3438 23.9844 95.3438C23.9844 95.1562 23.9844 94.875 23.9844 94.5C24.3594 92.25 24.2656 90.6562 23.7031 89.7188C23.3281 88.7812 22.8594 87.9375 22.2969 87.1875C22.6719 85.5 23.1406 84 23.7031 82.6875C24.2656 81.375 24.7344 79.875 25.1094 78.1875C25.1094 76.125 25.0156 74.0625 24.8281 72C24.6406 69.9375 24.3594 67.7812 23.9844 65.5312C23.9844 63.2812 24.0781 61.875 24.2656 61.3125C24.6406 60.5625 24.6406 59.8125 24.2656 59.0625C24.2656 57.375 23.9844 56.3438 23.4219 55.9688C23.0469 55.5937 22.6719 55.0312 22.2969 54.2812C22.2969 53.3437 22.4844 52.5938 22.8594 52.0312C23.2344 51.4688 23.5156 50.8125 23.7031 50.0625C23.8906 49.125 23.7969 48.375 23.4219 47.8125C23.2344 47.0625 23.3281 46.3125 23.7031 45.5625C22.9531 44.4375 22.3906 43.125 22.0156 41.625C21.8281 39.5625 21.8281 38.1562 22.0156 37.4062C22.3906 36.6563 22.6719 35.8125 22.8594 34.875C22.8594 33.9375 22.7656 33.0937 22.5781 32.3438C22.5781 31.5938 22.6719 30.8437 22.8594 30.0938C22.8594 28.5937 22.6719 27.1875 22.2969 25.875C22.8594 23.4375 22.9531 22.125 22.5781 21.9375C22.2031 21.75 21.9219 21.2812 21.7344 20.5312C21.5469 18.6563 21.2656 17.625 20.8906 17.4375C20.5156 17.25 20.1406 16.9688 19.7656 16.5938C18.2656 15.2813 17.3281 14.7188 16.9531 14.9062C16.5781 14.9062 16.0156 14.9062 15.2656 14.9062C14.1406 13.5938 13.6719 12.8437 13.8594 12.6562C14.2344 12.2812 14.4219 11.9063 14.4219 11.5312C13.8594 10.7813 12.5469 10.2188 10.4844 9.84375C9.73438 9.46875 8.98438 9.28125 8.23438 9.28125C7.48438 9.09375 6.82812 8.8125 6.26562 8.4375C4.57812 7.125 3.45312 6.65625 2.89062 7.03125C2.32812 7.21875 1.67188 7.125 0.921875 6.75C0.734375 6.1875 0.546875 5.53125 0.359375 4.78125C0.171875 4.03125 0.171875 3.375 0.359375 2.8125C0.734375 2.0625 1.39062 1.96875 2.32812 2.53125C3.26562 2.90625 4.10938 3 4.85938 2.8125C6.17188 2.4375 7.57812 2.0625 9.07812 1.6875C10.7656 1.3125 12.0781 1.6875 13.0156 2.8125C13.3906 2.4375 14.1406 2.15625 15.2656 1.96875C16.3906 1.59375 17.1406 1.875 17.5156 2.8125C18.2656 2.4375 19.2969 2.15625 20.6094 1.96875C21.9219 1.78125 23.0469 1.875 23.9844 2.25C26.4219 2.0625 27.8281 2.0625 28.2031 2.25C28.5781 2.4375 28.9531 2.625 29.3281 2.8125C30.4531 2.8125 31.4844 2.71875 32.4219 2.53125C33.5469 2.34375 34.6719 2.0625 35.7969 1.6875C36.9219 2.4375 37.8594 2.90625 38.6094 3.09375C41.7969 2.71875 43.9531 2.25 45.0781 1.6875C46.2031 0.9375 47.7031 0.65625 49.5781 0.84375C50.5156 1.21875 51.1719 1.6875 51.5469 2.25C52.1094 2.8125 52.5781 3.375 52.9531 3.9375C55.7656 3.5625 57.6406 3.1875 58.5781 2.8125C59.5156 2.25 60.5469 1.875 61.6719 1.6875C63.9219 1.5 65.7031 1.21875 67.0156 0.84375C68.5156 0.46875 69.7344 1.03125 70.6719 2.53125C71.7969 2.53125 73.1094 2.71875 74.6094 3.09375C75.1719 2.71875 75.8281 2.53125 76.5781 2.53125C77.5156 2.53125 78.4531 2.4375 79.3906 2.25C79.9531 2.25 80.4219 2.15625 80.7969 1.96875C81.3594 1.78125 81.9219 1.78125 82.4844 1.96875C84.7344 2.53125 86.5156 2.71875 87.8281 2.53125C89.1406 2.15625 90.1719 2.4375 90.9219 3.375C91.8594 3.375 92.6094 3.5625 93.1719 3.9375C93.7344 4.125 94.4844 4.3125 95.4219 4.5C96.7344 4.125 97.8594 3.65625 98.7969 3.09375C99.7344 2.53125 100.766 2.0625 101.891 1.6875C103.953 2.4375 104.891 3.09375 104.703 3.65625C104.703 4.21875 104.797 4.6875 104.984 5.0625C105.547 5.0625 106.297 5.0625 107.234 5.0625C108.359 5.0625 109.203 5.25 109.766 5.625C111.266 7.5 112.109 8.34375 112.297 8.15625C112.672 7.78125 113.141 7.6875 113.703 7.875C114.453 8.25 114.828 8.90625 114.828 9.84375C115.016 10.7813 115.203 11.5312 115.391 12.0938C116.516 13.0313 117.828 13.5938 119.328 13.7812C120.828 15.2813 121.953 16.2187 122.703 16.5938C123.453 16.7812 124.203 17.0625 124.953 17.4375C126.641 18.75 127.766 19.6875 128.328 20.25C129.078 20.625 129.828 21.0938 130.578 21.6562C130.578 22.4062 130.766 22.9687 131.141 23.3438C131.703 23.5312 132.172 23.8125 132.547 24.1875C131.984 25.5 131.984 26.3437 132.547 26.7188C133.297 26.9062 133.859 27.375 134.234 28.125C134.797 30.5625 135.453 32.25 136.203 33.1875C136.953 33.9375 137.141 34.9688 136.766 36.2812C137.141 38.1562 137.984 39.5625 139.297 40.5C140.797 41.4375 141.734 42.75 142.109 44.4375C141.547 46.875 141.547 48.6562 142.109 49.7812C142.672 50.7188 142.859 51.6562 142.672 52.5938L141.266 54.5625ZM108.359 70.0312C108.547 68.5312 108.547 67.4062 108.359 66.6562C108.359 65.7188 108.172 64.7812 107.797 63.8438C107.609 62.3437 107.328 61.2187 106.953 60.4688C106.766 59.5312 106.484 58.5938 106.109 57.6562C106.484 56.7187 106.578 55.9688 106.391 55.4062C106.391 54.6563 106.391 53.8125 106.391 52.875C106.578 51 106.484 49.9687 106.109 49.7812C105.922 49.4062 105.734 49.0313 105.547 48.6562C104.047 46.5937 103.203 45.1875 103.016 44.4375C102.828 43.6875 102.734 42.8438 102.734 41.9062C102.172 40.9687 101.234 40.5 99.9219 40.5C98.7969 40.5 98.0469 40.0313 97.6719 39.0938C97.4844 36.8438 97.1094 35.4375 96.5469 34.875C95.9844 34.3125 95.7031 33.4688 95.7031 32.3438C94.3906 32.7188 93.3594 32.7188 92.6094 32.3438C92.0469 31.9687 91.3906 31.5938 90.6406 31.2188C89.7031 31.9687 88.6719 32.1563 87.5469 31.7812C86.4219 31.2188 85.2969 31.2188 84.1719 31.7812C82.6719 31.2188 81.5469 31.0313 80.7969 31.2188C80.0469 31.2188 79.3906 31.0313 78.8281 30.6562C77.7031 29.1562 76.7656 28.5937 76.0156 28.9688C75.2656 29.3438 74.4219 29.3438 73.4844 28.9688C72.5469 30.6562 71.9844 31.5938 71.7969 31.7812C71.7969 31.9687 71.6094 32.25 71.2344 32.625C68.2344 31.3125 66.2656 30.8437 65.3281 31.2188C64.5781 31.4062 63.6406 31.6875 62.5156 32.0625C60.2656 31.3125 58.8594 31.0313 58.2969 31.2188C58.1094 32.1563 58.0156 33 58.0156 33.75C58.2031 34.5 58.1094 35.25 57.7344 36C58.1094 36.375 58.5781 36.75 59.1406 37.125C59.7031 37.5 60.0781 38.0625 60.2656 38.8125C60.0781 39.75 59.7031 40.5 59.1406 41.0625C58.7656 41.625 58.3906 42.375 58.0156 43.3125C58.7656 44.0625 58.9531 45 58.5781 46.125C58.2031 47.25 57.8281 48.1875 57.4531 48.9375C58.0156 50.0625 57.8281 51.0937 56.8906 52.0312C57.2656 52.9688 57.6406 53.8125 58.0156 54.5625C58.5781 55.3125 58.8594 56.3438 58.8594 57.6562C58.6719 58.5938 58.3906 59.4375 58.0156 60.1875C57.6406 60.75 57.3594 61.5 57.1719 62.4375C58.2969 64.125 58.7656 65.1562 58.5781 65.5312C58.3906 65.9062 58.2031 66.2812 58.0156 66.6562C58.2031 67.2188 58.4844 67.6875 58.8594 68.0625C59.2344 68.4375 59.6094 68.9062 59.9844 69.4688C60.3594 70.5938 60.3594 71.8125 59.9844 73.125C59.6094 74.25 59.3281 75.375 59.1406 76.5C59.1406 77.0625 59.1406 77.7188 59.1406 78.4688C59.3281 79.0312 59.3281 79.5 59.1406 79.875C58.5781 81.75 58.4844 82.875 58.8594 83.25C59.2344 83.625 59.5156 84.1875 59.7031 84.9375C58.9531 86.4375 58.3906 87.4688 58.0156 88.0312C57.6406 88.4062 57.2656 88.875 56.8906 89.4375C57.2656 89.8125 57.6406 90.1875 58.0156 90.5625C58.5781 90.9375 59.0469 91.3125 59.4219 91.6875C59.2344 92.625 59.2344 93.2812 59.4219 93.6562C59.7969 94.0312 60.0781 94.5 60.2656 95.0625C60.4531 96.75 60.8281 97.6875 61.3906 97.875C61.9531 97.875 62.7031 97.7812 63.6406 97.5938C65.8906 96.4688 67.0156 96.2812 67.0156 97.0312C67.0156 97.7812 67.4844 98.25 68.4219 98.4375C69.3594 98.25 70.1094 97.875 70.6719 97.3125C71.2344 96.5625 72.1719 96.1875 73.4844 96.1875C74.9844 97.125 76.0156 97.5 76.5781 97.3125C77.1406 97.125 77.8906 97.0312 78.8281 97.0312C79.5781 96.6562 80.2344 96.1875 80.7969 95.625C81.5469 95.0625 82.4844 94.7812 83.6094 94.7812C86.2344 95.7188 88.2031 95.9062 89.5156 95.3438C91.0156 94.7812 92.5156 94.2188 94.0156 93.6562C94.3906 92.9062 94.7656 92.25 95.1406 91.6875C95.7031 90.9375 96.3594 90.375 97.1094 90C97.4844 89.625 98.0469 89.5312 98.7969 89.7188C99.5469 89.9062 100.109 89.9062 100.484 89.7188C100.859 88.7812 101.141 87.8438 101.328 86.9062C101.516 85.9688 101.891 85.125 102.453 84.375C103.766 84.1875 104.891 83.4375 105.828 82.125C104.891 79.875 105.078 77.625 106.391 75.375C106.203 74.4375 106.203 73.6875 106.391 73.125C106.766 72.5625 107.047 71.9062 107.234 71.1562L108.359 70.0312Z" fill="#F1EDFB"/>
</svg>
